<svg version="1.1" xmlns="http://www.w3.org/2000/svg" viewBox="-324.6080009460449 -1269.76005859375 5410.81650390625 2042.8801025390626"><desc>Created with Snap</desc><defs></defs><g><g><g transform="matrix(1.024,0,0,-1.024,0,0)"><path d="M494 842Q520 842 538 829Q556 817 556 799Q556 767 536 747Q516 728 479 728Q421 728 391 727Q389 715 373 619Q355 512 351 488L330 357Q308 210 295 111Q316 112 352 112Q405 112 424 98Q443 84 443 56Q443 30 422 12Q402 -6 365 -6Q340 -6 286 -4Q236 -2 220 -2Q157 -2 82 -13Q49 -18 35 -18Q13 -18 -2 -6Q-17 6 -17 29Q-17 65 15 85Q47 105 105 106L152 107L155 129Q179 289 190 355L212 486Q232 602 248 725L164 724Q128 724 114 735Q101 747 101 768Q101 836 199 841Q245 843 311 843L494 842ZM734 -5Q636 -5 581 50Q527 106 527 197Q527 278 559 339Q591 400 642 433Q693 466 749 466Q804 466 834 433Q865 401 865 350Q865 308 846 279Q828 250 798 250Q779 250 767 259Q756 268 756 284Q756 291 758 300Q760 309 761 313Q766 328 766 341Q766 354 759 361Q753 368 741 368Q718 368 698 347Q678 327 666 292Q654 257 654 215Q654 99 755 99Q796 99 843 126Q891 154 937 209Q949 223 964 223Q977 223 984 211Q992 199 992 178Q992 140 973 116Q926 58 860 26Q795 -5 734 -5ZM1357 223Q1370 223 1377 211Q1385 199 1385 178Q1385 138 1366 116Q1329 71 1261 33Q1194 -5 1117 -5Q1012 -5 954 52Q896 109 896 208Q896 277 925 336Q954 396 1005 431Q1057 466 1122 466Q1180 466 1215 431Q1250 397 1250 338Q1250 269 1200 219Q1151 170 1033 141Q1058 95 1128 95Q1173 95 1230 126Q1288 158 1330 209Q1342 223 1357 223ZM1105 368Q1068 368 1042 325Q1017 282 1017 221L1017 219Q1076 233 1110 261Q1144 289 1144 326Q1144 345 1133 356Q1123 368 1105 368ZM1583 -8Q1450 -8 1370 42Q1290 93 1290 197Q1290 252 1309 281Q1328 310 1365 310Q1392 310 1409 296Q1426 282 1426 260Q1426 240 1423 225Q1423 221 1421 211Q1420 201 1420 190Q1420 145 1465 123Q1511 101 1593 101Q1678 101 1726 131Q1774 162 1774 217Q1774 251 1752 275Q1730 300 1697 316Q1664 333 1604 357Q1527 387 1478 414Q1430 441 1395 487Q1361 534 1361 603Q1361 675 1399 731Q1438 787 1510 818Q1583 849 1681 849Q1754 849 1815 827Q1876 806 1912 762Q1949 718 1949 654Q1949 591 1930 559Q1911 527 1874 527Q1848 527 1830 543Q1813 559 1813 581Q1813 600 1816 616Q1819 646 1819 654Q1819 696 1778 718Q1737 740 1676 740Q1590 740 1544 708Q1499 677 1499 620Q1499 582 1522 555Q1546 528 1581 510Q1616 492 1679 467Q1755 436 1801 411Q1847 386 1879 343Q1912 300 1912 237Q1912 119 1822 55Q1733 -8 1583 -8ZM2575 223Q2588 223 2595 211Q2603 199 2603 178Q2603 138 2584 116Q2539 61 2493 28Q2447 -5 2384 -5Q2307 -5 2260 39Q2213 83 2213 156Q2213 195 2253 212Q2297 231 2316 252Q2335 274 2335 305Q2335 323 2327 332Q2320 341 2309 341Q2282 341 2249 302Q2217 263 2189 201Q2161 140 2145 75Q2134 28 2119 11Q2105 -5 2074 -5Q2043 -5 2028 17Q2014 40 2009 87Q2004 134 2004 225Q2004 379 2035 546Q2067 713 2128 826Q2190 940 2276 940Q2322 940 2350 900Q2379 861 2379 798Q2379 697 2320 588Q2261 480 2128 335Q2125 283 2125 228Q2173 353 2235 409Q2297 466 2351 466Q2401 466 2431 432Q2462 398 2462 348Q2462 293 2434 247Q2406 201 2338 165Q2342 138 2362 121Q2383 105 2412 105Q2443 105 2472 129Q2501 153 2548 209Q2560 223 2575 223ZM2255 841Q2237 841 2215 789Q2193 738 2172 650Q2152 563 2139 460Q2201 533 2241 619Q2282 705 2282 775Q2282 807 2275 824Q2268 841 2255 841ZM2645 -5Q2583 -5 2546 40Q2509 85 2509 158Q2509 238 2546 309Q2583 381 2644 424Q2706 468 2775 468Q2797 468 2804 459Q2812 451 2817 429Q2838 433 2861 433Q2910 433 2910 398Q2910 377 2895 298Q2872 183 2872 138Q2872 123 2879 114Q2887 105 2899 105Q2918 105 2945 129Q2972 154 3018 209Q3030 223 3045 223Q3058 223 3065 211Q3073 199 3073 178Q3073 138 3054 116Q3013 65 2967 30Q2921 -5 2878 -5Q2845 -5 2817 17Q2790 40 2776 79Q2724 -5 2645 -5ZM2681 96Q2703 96 2723 122Q2743 148 2752 191L2789 375Q2747 374 2711 343Q2676 313 2655 263Q2634 213 2634 157Q2634 126 2646 111Q2659 96 2681 96ZM3438 223Q3451 223 3458 211Q3466 199 3466 178Q3466 138 3447 116Q3404 63 3353 29Q3302 -5 3236 -5Q3032 -5 3032 282Q3032 326 3035 371L2996 371Q2966 371 2955 382Q2945 393 2945 417Q2945 473 2990 473L3047 473Q3064 583 3099 674Q3134 765 3183 819Q3233 873 3290 873Q3332 873 3356 836Q3380 799 3380 743Q3380 588 3250 473L3362 473Q3378 473 3385 466Q3392 459 3392 440Q3392 371 3279 371L3157 371Q3155 321 3155 293Q3155 189 3179 147Q3204 105 3257 105Q3300 105 3333 131Q3366 157 3411 209Q3423 223 3438 223ZM3263 777Q3248 777 3229 739Q3211 702 3194 635Q3178 569 3167 488Q3226 539 3255 602Q3285 666 3285 718Q3285 777 3263 777ZM3516 532Q3474 532 3453 551Q3432 571 3432 606Q3432 641 3459 664Q3487 688 3528 688Q3565 688 3588 670Q3611 652 3611 619Q3611 579 3585 555Q3559 532 3516 532ZM3508 -5Q3443 -5 3413 41Q3384 87 3384 163Q3384 208 3395 278Q3407 349 3425 410Q3434 442 3449 454Q3464 466 3497 466Q3548 466 3548 432Q3548 407 3529 316Q3505 206 3505 167Q3505 137 3513 121Q3521 105 3540 105Q3558 105 3585 130Q3612 155 3657 209Q3669 223 3684 223Q3697 223 3704 211Q3712 199 3712 178Q3712 138 3693 116Q3594 -5 3508 -5ZM3702 -5Q3664 -5 3648 35Q3633 75 3633 163Q3633 293 3670 410Q3679 439 3699 452Q3720 466 3757 466Q3777 466 3785 461Q3793 456 3793 442Q3793 426 3778 370Q3768 330 3762 300Q3756 270 3752 226Q3785 312 3826 366Q3867 420 3906 443Q3946 466 3979 466Q4044 466 4044 401Q4044 362 4022 260Q4003 173 4003 145Q4003 105 4032 105Q4052 105 4079 129Q4107 154 4153 209Q4165 223 4180 223Q4193 223 4200 211Q4208 199 4208 178Q4208 138 4189 116Q4146 63 4096 29Q4047 -5 3984 -5Q3933 -5 3907 24Q3881 54 3881 110Q3881 138 3895 210Q3908 273 3908 297Q3908 313 3897 313Q3884 313 3860 279Q3837 246 3812 191Q3788 136 3773 75Q3762 28 3747 11Q3733 -5 3702 -5ZM4639 221Q4652 221 4659 208Q4667 196 4667 177Q4667 154 4660 141Q4653 128 4638 118Q4552 60 4512 32L4448 -11Q4410 -218 4348 -337Q4287 -455 4192 -455Q4141 -455 4109 -424Q4077 -392 4077 -341Q4077 -270 4133 -189Q4189 -107 4343 12L4349 51Q4332 24 4304 9Q4277 -5 4250 -5Q4188 -5 4151 40Q4114 85 4114 158Q4114 238 4151 309Q4188 381 4249 424Q4311 468 4380 468Q4402 468 4409 459Q4417 451 4422 429Q4441 433 4466 433Q4491 433 4501 425Q4512 418 4512 396Q4512 384 4511 377Q4507 346 4486 220Q4482 196 4477 167Q4473 139 4468 107Q4545 167 4616 213Q4629 221 4639 221ZM4286 96Q4309 96 4330 124Q4351 152 4360 204L4392 375Q4351 374 4316 343Q4281 313 4260 263Q4239 213 4239 157Q4239 126 4251 111Q4264 96 4286 96ZM4203 -358Q4228 -358 4259 -298Q4291 -238 4320 -107Q4243 -173 4209 -226Q4175 -279 4175 -319Q4175 -336 4181 -347Q4188 -358 4203 -358Z" fill="#195190" style=""></path></g></g></g></svg>